<svg xmlns="http://www.w3.org/2000/svg" xmlns:xlink="http://www.w3.org/1999/xlink" width="500" viewBox="0 0 375 374.999991" height="500" preserveAspectRatio="xMidYMid meet"><defs><clipPath id="8bd6f8f33a"><path d="M 137 213 L 194 213 L 194 262.5 L 137 262.5 Z M 137 213 " clip-rule="nonzero"></path></clipPath><clipPath id="a6cec7de47"><path d="M 191 213 L 239 213 L 239 262.5 L 191 262.5 Z M 191 213 " clip-rule="nonzero"></path></clipPath></defs><path fill="#00657b" d="M 186.300781 193.777344 C 185.582031 193.777344 184.882812 193.519531 184.339844 193.042969 C 180.234375 189.457031 176.128906 185.765625 172.160156 182.191406 C 168.210938 178.644531 164.128906 174.96875 160.0625 171.421875 C 158.878906 170.382812 158.707031 168.601562 159.675781 167.355469 C 160.390625 166.441406 161.152344 165.609375 161.890625 164.800781 C 162.460938 164.175781 163.035156 163.554688 163.574219 162.894531 C 164.089844 162.261719 164.839844 161.867188 165.65625 161.804688 C 166.476562 161.738281 167.273438 162.015625 167.878906 162.5625 C 171.101562 165.460938 174.34375 168.363281 177.582031 171.269531 C 179.851562 173.300781 182.117188 175.335938 184.382812 177.367188 L 206.308594 143.292969 C 207.191406 141.929688 209.003906 141.523438 210.386719 142.375 C 211.027344 142.777344 211.664062 143.191406 212.300781 143.605469 C 213.300781 144.261719 214.242188 144.878906 215.21875 145.429688 C 215.925781 145.828125 216.441406 146.503906 216.640625 147.296875 C 216.835938 148.089844 216.695312 148.925781 216.257812 149.613281 C 212.78125 155.046875 209.289062 160.46875 205.792969 165.894531 C 200.207031 174.566406 194.429688 183.535156 188.820312 192.394531 C 188.351562 193.128906 187.589844 193.621094 186.726562 193.746094 C 186.585938 193.765625 186.441406 193.777344 186.300781 193.777344 Z M 144.648438 164.695312 C 144.78125 166.980469 143.839844 168.800781 143.078125 170.277344 C 142.714844 170.976562 142.371094 171.640625 142.21875 172.21875 C 142.191406 172.308594 142.164062 172.398438 142.128906 172.488281 C 141.191406 175.003906 141.984375 178.265625 144.101562 180.605469 C 144.609375 181.171875 145.386719 181.679688 146.214844 182.222656 C 147.808594 183.265625 149.792969 184.5625 150.894531 186.960938 C 150.941406 187.066406 150.984375 187.171875 151.019531 187.277344 C 151.515625 188.792969 151.652344 190.308594 151.777344 191.640625 C 151.890625 192.921875 152.003906 194.132812 152.40625 195.082031 C 153.449219 197.816406 156.117188 199.902344 159.09375 200.378906 C 159.179688 200.390625 159.261719 200.410156 159.34375 200.429688 C 159.835938 200.550781 160.472656 200.582031 161.148438 200.613281 C 162.675781 200.6875 164.578125 200.777344 166.382812 201.957031 C 168.203125 203.046875 169.285156 204.75 170.15625 206.117188 C 170.773438 207.09375 171.308594 207.929688 171.972656 208.378906 C 172.054688 208.433594 172.140625 208.496094 172.21875 208.5625 C 174.820312 210.742188 178.707031 211.160156 181.664062 209.578125 C 183.421875 208.589844 186.457031 206.890625 189.941406 207.867188 C 190.03125 207.890625 190.121094 207.921875 190.210938 207.953125 C 191.105469 208.300781 191.925781 208.703125 192.71875 209.09375 C 194.199219 209.820312 195.480469 210.445312 196.742188 210.472656 C 196.804688 210.472656 196.867188 210.480469 196.929688 210.484375 C 199.863281 210.714844 202.921875 209.273438 204.664062 206.765625 C 204.910156 206.433594 205.117188 206.121094 205.324219 205.816406 C 206.195312 204.511719 207.183594 203.03125 208.828125 201.957031 C 210.601562 200.683594 212.664062 200.648438 214.167969 200.621094 C 214.816406 200.609375 215.425781 200.597656 215.839844 200.488281 C 215.9375 200.464844 216.042969 200.441406 216.144531 200.429688 C 219.835938 199.878906 223.035156 196.699219 223.4375 193.1875 C 223.453125 193.050781 223.476562 192.914062 223.511719 192.785156 C 223.636719 192.296875 223.679688 191.644531 223.730469 190.953125 C 223.851562 189.191406 224.015625 186.785156 225.824219 184.859375 C 226.878906 183.625 228.125 182.832031 229.230469 182.132812 C 229.949219 181.675781 230.628906 181.242188 231.097656 180.777344 C 233.246094 178.632812 234.132812 175.394531 233.304688 172.71875 C 233.054688 171.8125 232.636719 170.988281 232.191406 170.113281 C 231.820312 169.378906 231.433594 168.621094 231.105469 167.765625 C 231.039062 167.59375 230.984375 167.410156 230.949219 167.222656 C 230.398438 164.171875 230.855469 161.464844 232.28125 159.402344 C 233.523438 157.402344 233.886719 154.753906 233.1875 152.445312 C 232.554688 150.265625 230.742188 148.367188 227.488281 146.441406 C 224.199219 144.324219 223.878906 140.9375 223.640625 138.46875 C 223.574219 137.71875 223.503906 137.015625 223.378906 136.441406 C 223.355469 136.351562 223.339844 136.265625 223.332031 136.179688 C 222.972656 133.472656 220.917969 130.949219 218.222656 129.898438 C 217.222656 129.457031 216.054688 129.339844 214.8125 129.214844 C 212.71875 129.003906 210.117188 128.742188 207.875 126.96875 C 207.785156 126.898438 207.695312 126.820312 207.617188 126.738281 C 206.699219 125.824219 205.992188 124.8125 205.371094 123.917969 C 204.800781 123.101562 204.265625 122.332031 203.667969 121.777344 C 203.628906 121.738281 203.585938 121.699219 203.542969 121.65625 C 201.664062 119.691406 198.792969 118.757812 196.402344 119.324219 C 196.339844 119.339844 196.277344 119.351562 196.210938 119.363281 C 195.335938 119.507812 194.367188 119.960938 193.335938 120.429688 C 191.179688 121.429688 188.5 122.664062 185.242188 121.71875 C 184.09375 121.339844 183.121094 120.90625 182.171875 120.484375 C 180.148438 119.578125 178.402344 118.804688 176.824219 119.199219 C 176.691406 119.234375 176.558594 119.257812 176.425781 119.273438 C 172.984375 119.660156 170.703125 122.773438 169.65625 124.59375 C 168.65625 126.550781 166.195312 129.070312 160.5625 129.191406 C 157.15625 129.28125 153.863281 131.414062 152.558594 134.378906 C 152.058594 135.40625 151.957031 136.578125 151.839844 137.929688 C 151.710938 139.410156 151.570312 141.089844 150.902344 142.769531 C 149.875 145.105469 148.070312 146.246094 146.617188 147.160156 C 145.945312 147.585938 145.308594 147.988281 144.917969 148.40625 C 144.859375 148.46875 144.800781 148.527344 144.738281 148.585938 C 142.144531 150.910156 141.136719 154.804688 142.339844 157.847656 C 142.53125 158.390625 142.808594 158.902344 143.097656 159.449219 C 143.835938 160.824219 144.746094 162.527344 144.648438 164.695312 Z M 177.726562 216.480469 C 174.421875 216.480469 171.136719 215.367188 168.507812 213.214844 C 166.890625 212.082031 165.957031 210.609375 165.125 209.304688 C 164.484375 208.292969 163.929688 207.417969 163.214844 206.992188 C 162.667969 206.636719 161.832031 206.597656 160.867188 206.550781 C 160.011719 206.507812 159.046875 206.460938 158.03125 206.226562 C 152.992188 205.382812 148.621094 201.882812 146.875 197.289062 C 146.160156 195.59375 145.992188 193.78125 145.84375 192.183594 C 145.75 191.136719 145.660156 190.144531 145.414062 189.304688 C 144.984375 188.523438 144.039062 187.90625 142.949219 187.191406 C 141.886719 186.496094 140.6875 185.714844 139.671875 184.574219 C 136.089844 180.625 134.851562 175.125 136.503906 170.539062 C 136.824219 169.402344 137.335938 168.421875 137.785156 167.550781 C 138.308594 166.535156 138.761719 165.660156 138.703125 164.984375 C 138.6875 164.816406 138.683594 164.644531 138.699219 164.476562 C 138.742188 163.925781 138.324219 163.148438 137.84375 162.25 C 137.476562 161.566406 137.066406 160.792969 136.761719 159.929688 C 134.695312 154.714844 136.285156 148.242188 140.660156 144.25 C 141.550781 143.328125 142.550781 142.695312 143.433594 142.132812 C 144.359375 141.554688 145.152344 141.050781 145.402344 140.480469 C 145.707031 139.710938 145.804688 138.597656 145.90625 137.417969 C 146.054688 135.71875 146.222656 133.785156 147.160156 131.878906 C 149.335938 126.910156 154.6875 123.398438 160.417969 123.25 C 161.917969 123.21875 163.820312 122.933594 164.421875 121.757812 C 167.234375 116.875 171.160156 113.953125 175.558594 113.390625 C 179.0625 112.574219 182.128906 113.953125 184.605469 115.054688 C 185.453125 115.4375 186.257812 115.792969 187.015625 116.046875 C 187.96875 116.320312 189.035156 115.867188 190.839844 115.035156 C 192.089844 114.460938 193.503906 113.804688 195.121094 113.519531 C 199.511719 112.511719 204.464844 114.0625 207.785156 117.480469 C 208.820312 118.457031 209.585938 119.554688 210.261719 120.523438 C 210.746094 121.21875 211.207031 121.878906 211.695312 122.402344 C 212.574219 123.011719 213.894531 123.144531 215.414062 123.300781 C 216.984375 123.457031 218.773438 123.640625 220.515625 124.414062 C 225.078125 126.191406 228.527344 130.460938 229.21875 135.269531 C 229.410156 136.167969 229.492188 137.046875 229.574219 137.90625 C 229.765625 139.9375 229.929688 140.945312 230.621094 141.382812 C 233.445312 143.054688 237.488281 145.90625 238.894531 150.75 C 240.097656 154.699219 239.507812 159.050781 237.265625 162.65625 C 236.601562 163.617188 236.617188 164.886719 236.765625 165.882812 C 236.976562 166.378906 237.234375 166.890625 237.507812 167.429688 C 238.039062 168.480469 238.644531 169.667969 239.023438 171.0625 C 240.480469 175.761719 239.03125 181.265625 235.308594 184.980469 C 234.378906 185.910156 233.339844 186.570312 232.421875 187.148438 C 231.554688 187.699219 230.800781 188.175781 230.328125 188.746094 C 230.28125 188.800781 230.234375 188.855469 230.179688 188.910156 C 229.8125 189.289062 229.742188 190.292969 229.671875 191.359375 C 229.613281 192.183594 229.550781 193.113281 229.332031 194.054688 C 228.539062 200.171875 223.46875 205.28125 217.167969 206.285156 C 216.132812 206.53125 215.152344 206.546875 214.273438 206.5625 C 213.359375 206.582031 212.566406 206.59375 212.195312 206.859375 C 211.460938 207.339844 210.886719 208.203125 210.273438 209.117188 C 210.027344 209.480469 209.785156 209.847656 209.53125 210.199219 C 206.640625 214.351562 201.527344 216.800781 196.519531 216.414062 C 193.984375 216.339844 191.917969 215.324219 190.09375 214.429688 C 189.441406 214.105469 188.820312 213.804688 188.214844 213.5625 C 187.214844 213.339844 186 213.964844 184.527344 214.789062 C 182.398438 215.925781 180.058594 216.480469 177.726562 216.480469 " fill-opacity="1" fill-rule="nonzero"></path><g clip-path="url(#8bd6f8f33a)"><path fill="#00657b" d="M 151.910156 213.5 C 151.132812 213.5 150.703125 214.449219 150.375 215.109375 C 146.507812 223.261719 142.578125 231.472656 138.898438 239.8125 C 138.339844 241.117188 137.464844 242.300781 137.339844 243.734375 C 137.101562 245.34375 138.53125 246.789062 140.082031 246.789062 C 140.144531 246.789062 140.207031 246.785156 140.269531 246.78125 C 143.730469 246.9375 147.175781 246.96875 150.613281 246.96875 C 152.90625 246.96875 155.195312 246.953125 157.480469 246.953125 C 158.621094 246.953125 159.765625 246.957031 160.910156 246.96875 C 164.589844 251.199219 168.019531 255.617188 171.570312 259.972656 C 172.425781 260.949219 173.160156 262.339844 174.597656 262.339844 C 174.628906 262.339844 174.660156 262.339844 174.691406 262.339844 C 174.886719 262.386719 175.085938 262.414062 175.277344 262.414062 C 176.535156 262.414062 177.625 261.410156 178.054688 260.222656 C 183.421875 248.523438 188.222656 236.578125 193.644531 224.941406 C 191.898438 223.570312 189.714844 223.007812 187.722656 222.015625 C 184.398438 223.972656 180.527344 225.03125 176.683594 225.03125 C 172.953125 225.03125 169.25 224.035156 166.085938 221.890625 C 163.15625 220.085938 161.160156 217.160156 159.101562 214.421875 C 156.792969 214.113281 154.550781 213.738281 152.242188 213.550781 C 152.125 213.515625 152.015625 213.5 151.910156 213.5 Z M 154.113281 218.679688 C 154.859375 218.773438 155.609375 218.878906 156.386719 218.992188 C 158.234375 221.453125 160.367188 224.101562 163.414062 226.003906 C 167.246094 228.574219 171.832031 229.9375 176.683594 229.9375 C 180.195312 229.9375 183.664062 229.238281 186.894531 227.898438 C 184.8125 232.523438 182.800781 237.179688 180.839844 241.726562 C 178.820312 246.402344 176.742188 251.214844 174.613281 255.933594 C 173.796875 254.933594 172.992188 253.925781 172.183594 252.921875 C 169.753906 249.894531 167.242188 246.773438 164.621094 243.753906 L 163.167969 242.085938 L 160.957031 242.066406 C 159.796875 242.058594 158.636719 242.054688 157.480469 242.054688 C 156.332031 242.054688 155.183594 242.058594 154.035156 242.058594 C 152.894531 242.0625 151.753906 242.066406 150.613281 242.066406 C 148.402344 242.066406 145.898438 242.054688 143.308594 241.984375 C 143.335938 241.921875 143.367188 241.851562 143.394531 241.789062 C 146.691406 234.3125 150.25 226.816406 153.691406 219.566406 L 154.113281 218.679688 " fill-opacity="1" fill-rule="nonzero"></path></g><g clip-path="url(#a6cec7de47)"><path fill="#00657b" d="M 224.699219 213.488281 C 221.890625 213.488281 219.148438 214.113281 216.402344 214.359375 C 213.660156 218.777344 209.605469 222.824219 204.308594 224.070312 C 202.871094 224.441406 200.816406 224.566406 200.191406 226.246094 C 197.445312 232.964844 194.332031 239.503906 191.585938 246.222656 C 193.457031 251.078125 195.703125 255.679688 197.699219 260.472656 C 198.097656 261.441406 198.867188 262.359375 199.957031 262.359375 C 200.050781 262.359375 200.152344 262.355469 200.253906 262.339844 C 200.421875 262.367188 200.585938 262.382812 200.742188 262.382812 C 202.667969 262.382812 203.714844 260.363281 204.867188 259.039062 C 208.238281 255.058594 211.289062 250.886719 214.722656 246.96875 C 221.328125 246.65625 227.941406 246.78125 234.546875 246.71875 C 235.734375 246.65625 237.230469 246.472656 237.917969 245.351562 C 238.914062 242.800781 237.039062 240.558594 236.105469 238.378906 C 232.367188 230.042969 228.75 221.703125 224.699219 213.488281 Z M 221.730469 218.617188 C 224.386719 224.15625 226.910156 229.816406 229.359375 235.316406 C 230.113281 237.003906 230.867188 238.695312 231.59375 240.3125 C 231.824219 240.855469 232.082031 241.367188 232.324219 241.832031 C 231.082031 241.835938 229.839844 241.839844 228.597656 241.839844 C 223.988281 241.847656 219.226562 241.847656 214.488281 242.074219 L 212.398438 242.171875 L 211.019531 243.742188 C 209.042969 246.003906 207.191406 248.339844 205.398438 250.597656 C 204.007812 252.347656 202.570312 254.160156 201.160156 255.824219 C 201.136719 255.855469 201.113281 255.882812 201.085938 255.910156 C 200.613281 254.824219 200.136719 253.753906 199.671875 252.699219 C 198.691406 250.496094 197.757812 248.394531 196.882812 246.261719 C 198.019531 243.558594 199.21875 240.847656 200.386719 238.214844 C 201.699219 235.242188 203.054688 232.179688 204.332031 229.085938 C 204.414062 229.070312 204.492188 229.054688 204.5625 229.039062 C 204.886719 228.96875 205.191406 228.902344 205.488281 228.828125 C 211.863281 227.3125 216.335938 222.964844 219.226562 218.960938 C 219.539062 218.921875 219.847656 218.878906 220.152344 218.832031 C 220.691406 218.757812 221.214844 218.683594 221.730469 218.617188 " fill-opacity="1" fill-rule="nonzero"></path></g></svg>