<svg xmlns="http://www.w3.org/2000/svg" xmlns:xlink="http://www.w3.org/1999/xlink" width="500" viewBox="0 0 375 374.999991" height="500" preserveAspectRatio="xMidYMid meet"><defs><clipPath id="23b743b315"><path d="M 190 256 L 196.863281 256 L 196.863281 262.273438 L 190 262.273438 Z M 190 256 " clip-rule="nonzero"></path></clipPath><clipPath id="628e6a09a9"><path d="M 128.25 112.671875 L 246.675781 112.671875 L 246.675781 262.273438 L 128.25 262.273438 Z M 128.25 112.671875 " clip-rule="nonzero"></path></clipPath></defs><path fill="#00657b" d="M 159.414062 143.84375 C 161.128906 143.84375 162.527344 142.4375 162.527344 140.726562 C 162.527344 139.011719 161.128906 137.613281 159.414062 137.613281 C 157.695312 137.613281 156.296875 139.011719 156.296875 140.726562 C 156.296875 142.4375 157.695312 143.84375 159.414062 143.84375 " fill-opacity="1" fill-rule="nonzero"></path><path fill="#00657b" d="M 171.878906 143.84375 C 173.597656 143.84375 174.996094 142.4375 174.996094 140.726562 C 174.996094 139.011719 173.597656 137.613281 171.878906 137.613281 C 170.164062 137.613281 168.765625 139.011719 168.765625 140.726562 C 168.765625 142.4375 170.164062 143.84375 171.878906 143.84375 " fill-opacity="1" fill-rule="nonzero"></path><path fill="#00657b" d="M 159.414062 156.308594 C 161.128906 156.308594 162.527344 154.90625 162.527344 153.195312 C 162.527344 151.480469 161.128906 150.082031 159.414062 150.082031 C 157.695312 150.082031 156.296875 151.480469 156.296875 153.195312 C 156.296875 154.90625 157.695312 156.308594 159.414062 156.308594 " fill-opacity="1" fill-rule="nonzero"></path><path fill="#00657b" d="M 171.878906 156.308594 C 173.597656 156.308594 174.996094 154.90625 174.996094 153.195312 C 174.996094 151.480469 173.597656 150.082031 171.878906 150.082031 C 170.164062 150.082031 168.765625 151.480469 168.765625 153.195312 C 168.765625 154.90625 170.164062 156.308594 171.878906 156.308594 " fill-opacity="1" fill-rule="nonzero"></path><g clip-path="url(#23b743b315)"><path fill="#00657b" d="M 193.386719 256.039062 C 191.671875 256.039062 190.265625 257.445312 190.265625 259.152344 C 190.265625 260.871094 191.671875 262.273438 193.386719 262.273438 C 195.097656 262.273438 196.503906 260.871094 196.503906 259.152344 C 196.503906 257.445312 195.097656 256.039062 193.386719 256.039062 " fill-opacity="1" fill-rule="nonzero"></path></g><path fill="#00657b" d="M 203.042969 243.570312 C 203.042969 245.296875 204.441406 246.6875 206.167969 246.6875 C 207.882812 246.6875 209.28125 245.296875 209.28125 243.570312 L 209.28125 218.636719 C 209.28125 217.378906 208.519531 216.238281 207.355469 215.761719 C 206.1875 215.277344 204.847656 215.542969 203.957031 216.433594 L 196.8125 223.585938 L 189.664062 216.433594 C 188.773438 215.542969 187.433594 215.277344 186.265625 215.761719 C 185.109375 216.238281 184.347656 217.378906 184.347656 218.636719 L 184.347656 243.570312 C 184.347656 245.296875 185.746094 246.6875 187.460938 246.6875 C 189.1875 246.6875 190.578125 245.296875 190.578125 243.570312 L 190.578125 226.164062 L 194.613281 230.191406 C 195.828125 231.410156 197.800781 231.410156 199.015625 230.191406 L 203.042969 226.164062 L 203.042969 243.570312 " fill-opacity="1" fill-rule="nonzero"></path><path fill="#00657b" d="M 156.296875 227.988281 L 150.070312 227.988281 L 150.070312 221.757812 L 156.296875 221.757812 C 158.015625 221.757812 159.414062 223.15625 159.414062 224.875 C 159.414062 226.589844 158.015625 227.988281 156.296875 227.988281 Z M 156.296875 240.457031 L 150.070312 240.457031 L 150.070312 234.226562 L 156.296875 234.226562 C 158.015625 234.226562 159.414062 235.625 159.414062 237.339844 C 159.414062 239.058594 158.015625 240.457031 156.296875 240.457031 Z M 156.296875 215.523438 L 146.945312 215.523438 C 145.230469 215.523438 143.832031 216.921875 143.832031 218.636719 L 143.832031 243.570312 C 143.832031 245.296875 145.230469 246.6875 146.945312 246.6875 L 156.296875 246.6875 C 161.457031 246.6875 165.652344 242.492188 165.652344 237.339844 C 165.652344 234.945312 164.738281 232.761719 163.246094 231.105469 C 164.738281 229.453125 165.652344 227.273438 165.652344 224.875 C 165.652344 219.71875 161.457031 215.523438 156.296875 215.523438 " fill-opacity="1" fill-rule="nonzero"></path><path fill="#00657b" d="M 171.878906 218.636719 L 171.878906 243.570312 C 171.878906 245.296875 173.277344 246.6875 174.996094 246.6875 C 176.71875 246.6875 178.117188 245.296875 178.117188 243.570312 L 178.117188 218.636719 C 178.117188 216.921875 176.71875 215.523438 174.996094 215.523438 C 173.277344 215.523438 171.878906 216.921875 171.878906 218.636719 " fill-opacity="1" fill-rule="nonzero"></path><path fill="#00657b" d="M 231.09375 206.179688 C 231.09375 204.453125 229.703125 203.054688 227.976562 203.054688 L 146.945312 203.054688 C 145.230469 203.054688 143.832031 204.453125 143.832031 206.179688 C 143.832031 207.894531 145.230469 209.292969 146.945312 209.292969 L 227.976562 209.292969 C 229.703125 209.292969 231.09375 207.894531 231.09375 206.179688 " fill-opacity="1" fill-rule="nonzero"></path><path fill="#00657b" d="M 171.878906 168.777344 C 173.597656 168.777344 174.996094 167.371094 174.996094 165.664062 C 174.996094 163.945312 173.597656 162.539062 171.878906 162.539062 C 170.164062 162.539062 168.765625 163.945312 168.765625 165.664062 C 168.765625 167.371094 170.164062 168.777344 171.878906 168.777344 " fill-opacity="1" fill-rule="nonzero"></path><path fill="#00657b" d="M 199.929688 168.777344 C 201.644531 168.777344 203.042969 167.371094 203.042969 165.664062 C 203.042969 163.945312 201.644531 162.539062 199.929688 162.539062 C 198.210938 162.539062 196.8125 163.945312 196.8125 165.664062 C 196.8125 167.371094 198.210938 168.777344 199.929688 168.777344 " fill-opacity="1" fill-rule="nonzero"></path><path fill="#00657b" d="M 224.863281 162.539062 L 212.394531 162.539062 C 210.679688 162.539062 209.28125 163.945312 209.28125 165.664062 C 209.28125 167.371094 210.679688 168.777344 212.394531 168.777344 L 224.863281 168.777344 C 226.574219 168.777344 227.976562 167.371094 227.976562 165.664062 C 227.976562 163.945312 226.574219 162.539062 224.863281 162.539062 " fill-opacity="1" fill-rule="nonzero"></path><path fill="#00657b" d="M 199.929688 193.710938 C 199.929688 195.421875 201.335938 196.824219 203.042969 196.824219 L 227.976562 196.824219 C 229.695312 196.824219 231.09375 195.421875 231.09375 193.710938 C 231.09375 191.996094 229.695312 190.589844 227.976562 190.589844 L 203.042969 190.589844 C 201.335938 190.589844 199.929688 191.996094 199.929688 193.710938 " fill-opacity="1" fill-rule="nonzero"></path><path fill="#00657b" d="M 199.929688 181.242188 L 212.394531 181.242188 C 214.121094 181.242188 215.511719 179.847656 215.511719 178.128906 C 215.511719 176.40625 214.121094 175.007812 212.394531 175.007812 L 199.929688 175.007812 C 198.210938 175.007812 196.8125 176.40625 196.8125 178.128906 C 196.8125 179.847656 198.210938 181.242188 199.929688 181.242188 " fill-opacity="1" fill-rule="nonzero"></path><path fill="#00657b" d="M 159.414062 168.777344 C 161.128906 168.777344 162.527344 167.371094 162.527344 165.664062 C 162.527344 163.945312 161.128906 162.539062 159.414062 162.539062 C 157.695312 162.539062 156.296875 163.945312 156.296875 165.664062 C 156.296875 167.371094 157.695312 168.777344 159.414062 168.777344 " fill-opacity="1" fill-rule="nonzero"></path><g clip-path="url(#628e6a09a9)"><path fill="#00657b" d="M 228.058594 248.433594 L 224.863281 251.632812 L 224.863281 240.457031 L 236.039062 240.457031 Z M 245.777344 113.585938 C 245.183594 113.019531 244.371094 112.679688 243.558594 112.679688 L 131.363281 112.679688 C 130.554688 112.679688 129.742188 113.019531 129.15625 113.585938 C 128.589844 114.171875 128.25 114.984375 128.25 115.792969 L 128.25 259.152344 C 128.25 259.964844 128.589844 260.777344 129.15625 261.371094 C 129.742188 261.925781 130.554688 262.273438 131.363281 262.273438 L 180.921875 262.273438 C 182.628906 262.273438 184.035156 260.871094 184.035156 259.152344 C 184.035156 257.445312 182.628906 256.039062 180.921875 256.039062 L 134.480469 256.039062 L 134.480469 118.910156 L 240.445312 118.910156 L 240.445312 234.226562 L 221.75 234.226562 C 220.023438 234.226562 218.625 235.617188 218.625 237.339844 L 218.625 256.039062 L 205.847656 256.039062 C 204.136719 256.039062 202.734375 257.445312 202.734375 259.152344 C 202.734375 260.871094 204.136719 262.273438 205.847656 262.273438 L 221.75 262.273438 C 222.589844 262.273438 223.363281 261.957031 223.957031 261.371094 L 245.777344 239.550781 C 245.988281 239.339844 246.144531 239.09375 246.289062 238.839844 C 246.304688 238.8125 246.320312 238.78125 246.335938 238.753906 C 246.390625 238.636719 246.441406 238.53125 246.484375 238.414062 C 246.515625 238.332031 246.53125 238.261719 246.550781 238.1875 C 246.582031 238.082031 246.609375 237.972656 246.632812 237.855469 C 246.652344 237.710938 246.667969 237.558594 246.675781 237.40625 C 246.675781 237.386719 246.675781 237.363281 246.675781 237.339844 L 246.675781 115.792969 C 246.675781 114.984375 246.335938 114.171875 245.777344 113.585938 " fill-opacity="1" fill-rule="nonzero"></path></g><path fill="#00657b" d="M 209.28125 134.492188 C 209.28125 132.773438 210.679688 131.375 212.394531 131.375 C 214.113281 131.375 215.511719 132.773438 215.511719 134.492188 C 215.511719 136.207031 214.113281 137.613281 212.394531 137.613281 C 210.679688 137.613281 209.28125 136.207031 209.28125 134.492188 Z M 221.75 134.492188 C 221.75 129.339844 217.554688 125.148438 212.394531 125.148438 C 207.238281 125.148438 203.042969 129.339844 203.042969 134.492188 C 203.042969 139.648438 207.238281 143.84375 212.394531 143.84375 C 217.554688 143.84375 221.75 139.648438 221.75 134.492188 " fill-opacity="1" fill-rule="nonzero"></path><path fill="#00657b" d="M 181.234375 178.128906 L 168.765625 178.128906 L 168.765625 175.007812 C 168.765625 173.289062 167.367188 171.890625 165.652344 171.890625 C 163.925781 171.890625 162.527344 173.289062 162.527344 175.007812 L 162.527344 178.128906 L 150.070312 178.128906 L 150.070312 131.375 L 181.234375 131.375 Z M 184.347656 125.148438 L 146.945312 125.148438 C 145.230469 125.148438 143.832031 126.539062 143.832031 128.261719 L 143.832031 181.242188 C 143.832031 182.960938 145.230469 184.359375 146.945312 184.359375 L 184.347656 184.359375 C 186.070312 184.359375 187.460938 182.960938 187.460938 181.242188 L 187.460938 128.261719 C 187.460938 126.539062 186.070312 125.148438 184.347656 125.148438 " fill-opacity="1" fill-rule="nonzero"></path><path fill="#00657b" d="M 190.578125 196.824219 C 192.292969 196.824219 193.699219 195.421875 193.699219 193.710938 C 193.699219 191.996094 192.292969 190.589844 190.578125 190.589844 C 188.867188 190.589844 187.460938 191.996094 187.460938 193.710938 C 187.460938 195.421875 188.867188 196.824219 190.578125 196.824219 " fill-opacity="1" fill-rule="nonzero"></path><path fill="#00657b" d="M 196.8125 153.195312 C 196.8125 154.914062 198.210938 156.308594 199.929688 156.308594 L 224.863281 156.308594 C 226.578125 156.308594 227.976562 154.914062 227.976562 153.195312 C 227.976562 151.472656 226.578125 150.082031 224.863281 150.082031 L 199.929688 150.082031 C 198.210938 150.082031 196.8125 151.472656 196.8125 153.195312 " fill-opacity="1" fill-rule="nonzero"></path><path fill="#00657b" d="M 146.945312 196.824219 L 178.117188 196.824219 C 179.828125 196.824219 181.234375 195.421875 181.234375 193.710938 C 181.234375 191.996094 179.828125 190.589844 178.117188 190.589844 L 146.945312 190.589844 C 145.238281 190.589844 143.832031 191.996094 143.832031 193.710938 C 143.832031 195.421875 145.238281 196.824219 146.945312 196.824219 " fill-opacity="1" fill-rule="nonzero"></path></svg>