<svg xmlns="http://www.w3.org/2000/svg" xmlns:xlink="http://www.w3.org/1999/xlink" width="500" viewBox="0 0 375 374.999991" height="500" preserveAspectRatio="xMidYMid meet"><defs><clipPath id="712b454feb"><path d="M 164 173 L 229 173 L 229 264.675781 L 164 264.675781 Z M 164 173 " clip-rule="nonzero"></path></clipPath><clipPath id="2c62189176"><path d="M 164 110.175781 L 209 110.175781 L 209 153 L 164 153 Z M 164 110.175781 " clip-rule="nonzero"></path></clipPath><clipPath id="efebe4be55"><path d="M 100.25 179 L 140 179 L 140 217 L 100.25 217 Z M 100.25 179 " clip-rule="nonzero"></path></clipPath></defs><path fill="#00657b" d="M 155.269531 213.808594 C 147.1875 213.808594 144.972656 216.667969 144.972656 227.144531 L 144.972656 243.757812 C 144.972656 254.226562 147.1875 257.09375 155.269531 257.09375 C 159.164062 257.09375 159.875 254.832031 159.875 252.519531 L 159.875 218.785156 C 159.875 215.640625 158.808594 213.808594 155.269531 213.808594 Z M 155.269531 213.808594 " fill-opacity="1" fill-rule="nonzero"></path><g clip-path="url(#712b454feb)"><path fill="#00657b" d="M 186.332031 178.96875 C 183.753906 188.824219 176.851562 197.753906 171.371094 203.027344 C 168.816406 205.472656 166.476562 207.703125 165.214844 209.742188 C 164.101562 211.527344 164.1875 212.96875 164.1875 214.992188 L 164.1875 255.152344 C 164.1875 255.859375 164.515625 257.117188 166.476562 257.496094 C 169.753906 258.113281 171.84375 259.820312 173.867188 261.394531 C 177.054688 263.886719 180.34375 264.074219 184.769531 264.074219 C 184.769531 264.074219 221.015625 263.980469 221.070312 263.988281 C 221.910156 263.980469 223.316406 263 224.109375 261.421875 C 224.980469 259.679688 224.96875 257.511719 224.109375 255.769531 C 223.675781 254.890625 222.953125 254.28125 222.265625 253.699219 C 221.0625 252.683594 221.34375 250.992188 223.125 250.714844 C 225.003906 250.445312 226.816406 249.539062 227.789062 247.632812 C 228.820312 245.628906 228.820312 243.132812 227.789062 241.148438 C 226.804688 239.226562 225.023438 238.035156 223.125 238.035156 C 222.230469 238.035156 221.496094 237.3125 221.496094 236.433594 C 221.496094 235.542969 222.230469 234.824219 223.125 234.824219 C 225.023438 234.824219 226.804688 233.644531 227.789062 231.722656 C 228.820312 229.722656 228.820312 227.230469 227.789062 225.230469 C 226.804688 223.320312 225.015625 222.132812 223.113281 222.132812 C 222.21875 222.132812 221.507812 221.410156 221.507812 220.53125 C 221.507812 219.636719 222.21875 218.917969 223.113281 218.917969 C 225.015625 218.917969 226.804688 217.730469 227.789062 215.816406 C 228.820312 213.804688 228.820312 211.324219 227.789062 209.324219 C 226.804688 207.410156 225.015625 206.222656 223.113281 206.222656 L 200.039062 206.222656 C 195.789062 206.222656 195.695312 202.429688 195.535156 199.570312 C 195.398438 197.113281 195.480469 192.730469 196.660156 189.460938 C 198.734375 183.742188 197.726562 179.546875 196.328125 177.132812 C 193.265625 171.820312 188.003906 172.539062 186.332031 178.96875 Z M 186.332031 178.96875 " fill-opacity="1" fill-rule="nonzero"></path></g><g clip-path="url(#2c62189176)"><path fill="#00657b" d="M 188.953125 112.730469 L 194.125 123.34375 L 205.910156 125.082031 C 209.15625 125.546875 209.347656 126.96875 207.035156 129.242188 L 198.679688 136.757812 L 200.589844 148.761719 C 201.210938 152.445312 200.074219 153.328125 197.460938 151.941406 L 186.765625 146.257812 L 176.070312 151.945312 C 173.457031 153.328125 172.324219 152.445312 172.953125 148.765625 L 174.871094 136.757812 L 166.5 129.246094 C 164.1875 126.96875 164.378906 125.550781 167.625 125.082031 L 179.417969 123.34375 L 184.589844 112.734375 C 185.183594 111.488281 185.976562 110.871094 186.765625 110.871094 C 187.558594 110.867188 188.347656 111.488281 188.953125 112.730469 Z M 188.953125 112.730469 " fill-opacity="1" fill-rule="nonzero"></path></g><g clip-path="url(#efebe4be55)"><path fill="#00657b" d="M 122.058594 181.128906 L 126.597656 190.433594 L 136.9375 191.953125 C 139.78125 192.367188 139.953125 193.613281 137.921875 195.613281 L 130.585938 202.203125 L 132.261719 212.738281 C 132.8125 215.960938 131.8125 216.738281 129.523438 215.515625 L 120.144531 210.539062 L 110.757812 215.515625 C 108.460938 216.738281 107.46875 215.960938 108.015625 212.738281 L 109.691406 202.203125 L 102.351562 195.613281 C 100.324219 193.613281 100.5 192.367188 103.339844 191.953125 L 113.691406 190.433594 L 118.222656 181.128906 C 118.757812 180.042969 119.449219 179.488281 120.144531 179.488281 C 120.832031 179.492188 121.53125 180.042969 122.058594 181.128906 Z M 122.058594 181.128906 " fill-opacity="1" fill-rule="nonzero"></path></g><path fill="#00657b" d="M 142.566406 138.472656 L 147.117188 147.804688 L 157.476562 149.328125 C 160.320312 149.738281 160.492188 150.980469 158.460938 152.988281 L 151.117188 159.582031 L 152.789062 170.140625 C 153.339844 173.363281 152.339844 174.140625 150.050781 172.917969 L 140.648438 167.933594 L 131.25 172.917969 C 128.957031 174.140625 127.960938 173.363281 128.511719 170.140625 L 130.1875 159.582031 L 122.839844 152.988281 C 120.808594 150.984375 120.980469 149.738281 123.824219 149.328125 L 134.1875 147.804688 L 138.726562 138.472656 C 139.261719 137.382812 139.953125 136.835938 140.652344 136.835938 C 141.351562 136.835938 142.039062 137.382812 142.566406 138.472656 Z M 142.566406 138.472656 " fill-opacity="1" fill-rule="nonzero"></path><path fill="#00657b" d="M 230.96875 138.472656 L 226.425781 147.804688 L 216.0625 149.328125 C 213.207031 149.738281 213.035156 150.980469 215.078125 152.988281 L 222.425781 159.582031 L 220.738281 170.140625 C 220.191406 173.363281 221.1875 174.140625 223.492188 172.917969 L 232.878906 167.933594 L 242.28125 172.917969 C 244.570312 174.140625 245.582031 173.363281 245.03125 170.140625 L 243.34375 159.582031 L 250.691406 152.988281 C 252.722656 150.984375 252.5625 149.738281 249.707031 149.328125 L 239.347656 147.804688 L 234.804688 138.472656 C 234.269531 137.382812 233.578125 136.835938 232.878906 136.835938 C 232.195312 136.835938 231.492188 137.382812 230.96875 138.472656 Z M 230.96875 138.472656 " fill-opacity="1" fill-rule="nonzero"></path><path fill="#00657b" d="M 257.078125 181.128906 L 261.621094 190.433594 L 271.960938 191.953125 C 274.800781 192.367188 274.972656 193.613281 272.945312 195.613281 L 265.605469 202.203125 L 267.292969 212.738281 C 267.84375 215.960938 266.835938 216.738281 264.542969 215.515625 L 255.167969 210.539062 L 245.777344 215.515625 C 243.484375 216.738281 242.488281 215.960938 243.039062 212.738281 L 244.710938 202.203125 L 237.375 195.613281 C 235.34375 193.613281 235.515625 192.367188 238.363281 191.953125 L 248.714844 190.433594 L 253.253906 181.128906 C 253.777344 180.042969 254.464844 179.488281 255.167969 179.488281 C 255.851562 179.492188 256.554688 180.042969 257.078125 181.128906 Z M 257.078125 181.128906 " fill-opacity="1" fill-rule="nonzero"></path></svg>