<svg xmlns="http://www.w3.org/2000/svg" xmlns:xlink="http://www.w3.org/1999/xlink" width="500" viewBox="0 0 375 374.999991" height="500" preserveAspectRatio="xMidYMid meet"><defs><clipPath id="6784c33e91"><path d="M 112.6875 112.5 L 262.6875 112.5 L 262.6875 262.5 L 112.6875 262.5 Z M 112.6875 112.5 " clip-rule="nonzero"></path></clipPath></defs><g clip-path="url(#6784c33e91)"><path fill="#00657b" d="M 176.011719 217.269531 L 175.980469 217.257812 C 175.542969 217.125 175.175781 216.972656 174.898438 216.75 C 174.621094 216.523438 174.4375 216.226562 174.226562 215.640625 C 174.015625 215.054688 173.78125 214.179688 173.613281 213.394531 C 173.445312 212.609375 173.34375 211.917969 173.296875 211.3125 C 173.253906 210.710938 173.261719 210.191406 173.40625 209.792969 C 173.550781 209.390625 173.929688 209.070312 174.199219 208.988281 C 174.464844 208.902344 174.605469 208.957031 174.722656 208.925781 C 174.839844 208.894531 174.664062 208.828125 174.660156 208.769531 L 174.339844 204.242188 C 174.125 202.164062 174.570312 199.140625 176.101562 197.726562 C 176.460938 197.394531 177.6875 197.171875 177.910156 197.351562 C 177.683594 196.9375 177.582031 196.34375 178.046875 195.710938 C 178.515625 195.078125 179.558594 193.824219 180.621094 193.355469 C 182.257812 192.632812 184.085938 192.082031 185.863281 192.253906 C 187.878906 192.445312 189.839844 193.304688 191.539062 194.394531 C 192.90625 195.273438 194.074219 196.5625 194.816406 198.003906 C 195.613281 199.539062 195.851562 201.207031 196.015625 203.050781 C 196.175781 204.875 196.039062 207.066406 195.777344 208.902344 C 195.976562 208.917969 196.164062 208.960938 196.34375 209.027344 C 196.722656 209.171875 197.070312 209.425781 197.234375 209.902344 C 197.398438 210.378906 197.378906 211.074219 197.316406 211.773438 C 197.253906 212.464844 197.152344 213.160156 196.984375 213.859375 C 196.816406 214.554688 196.582031 215.261719 196.371094 215.757812 C 196.164062 216.261719 195.980469 216.554688 195.703125 216.78125 C 195.425781 217.003906 195.058594 217.15625 194.621094 217.289062 C 194.539062 217.3125 194.453125 217.335938 194.367188 217.359375 L 194.226562 219.484375 C 194.144531 220.730469 193.699219 221.785156 192.859375 222.699219 L 192.859375 226.378906 C 192.859375 227.113281 192.546875 227.742188 191.964844 228.1875 L 186.488281 232.382812 L 188.480469 233.636719 C 188.867188 233.863281 188.660156 234.375 188.480469 234.785156 L 187.671875 236.546875 C 187.480469 236.984375 187.238281 237.367188 187.429688 237.804688 L 187.621094 238.246094 L 188.867188 242.796875 L 189.40625 258.804688 L 193.433594 240.074219 C 194.515625 237.984375 194.886719 236.761719 194.964844 234.488281 C 195.039062 232.398438 194.875 229.421875 194.6875 226.371094 C 194.679688 226.234375 194.75 226.117188 194.871094 226.058594 C 194.992188 226 195.132812 226.015625 195.234375 226.109375 C 196.152344 226.914062 197.242188 227.726562 199.308594 228.546875 C 201.832031 229.542969 205.8125 230.550781 208.371094 231.179688 C 210.929688 231.804688 212.074219 232.050781 212.882812 232.652344 C 213.011719 232.75 213.136719 232.855469 213.25 232.976562 C 213.519531 233.257812 213.648438 233.601562 213.632812 233.988281 C 213.621094 234.378906 213.46875 234.710938 213.179688 234.976562 C 212.273438 235.804688 211.578125 237.0625 211.039062 238.582031 C 209.226562 243.683594 209.171875 251.71875 208.730469 256.183594 C 208.625 257.265625 208.691406 258.324219 208.929688 259.335938 C 209.023438 259.742188 208.945312 260.128906 208.703125 260.46875 C 208.460938 260.808594 208.121094 261.003906 207.707031 261.046875 C 194.554688 262.410156 181.398438 262.5 168.242188 261.453125 C 167.824219 261.421875 167.476562 261.226562 167.226562 260.886719 C 166.972656 260.550781 166.890625 260.160156 166.984375 259.75 C 167.148438 259.019531 167.230469 258.25 167.230469 257.457031 L 167.230469 245.417969 C 167.230469 241.164062 165.53125 236.347656 162.246094 233.523438 C 161.835938 233.175781 161.671875 232.664062 161.796875 232.140625 C 161.921875 231.617188 162.304688 231.234375 162.828125 231.105469 C 165.390625 230.476562 169.152344 229.503906 171.574219 228.546875 C 173.640625 227.726562 174.734375 226.917969 175.652344 226.109375 C 175.753906 226.019531 175.890625 226 176.011719 226.0625 C 176.132812 226.121094 176.203125 226.238281 176.195312 226.375 C 176.011719 229.421875 175.84375 232.398438 175.917969 234.488281 C 176 236.761719 176.367188 237.984375 177.453125 240.078125 L 181.480469 258.804688 L 182.015625 242.796875 L 183.269531 238.082031 L 183.382812 237.8125 C 183.574219 237.371094 183.347656 237.144531 183.140625 236.71875 L 182.171875 234.710938 C 181.972656 234.304688 181.785156 233.785156 182.171875 233.558594 L 184.285156 232.300781 L 178.917969 228.191406 C 178.335938 227.742188 178.023438 227.113281 178.023438 226.378906 L 178.023438 223.207031 L 177.621094 222.785156 C 176.722656 221.851562 176.242188 220.765625 176.160156 219.46875 L 176.015625 217.269531 Z M 249.542969 167.285156 C 249.894531 167.695312 250.222656 168.121094 250.523438 168.558594 C 250.816406 168.996094 251.3125 169.210938 251.832031 169.121094 L 255.777344 168.464844 C 256.246094 168.386719 256.707031 168.613281 256.828125 169.070312 C 257.246094 170.621094 257.664062 172.171875 258.082031 173.722656 C 258.203125 174.179688 257.917969 174.609375 257.472656 174.773438 L 253.722656 176.175781 C 253.226562 176.359375 252.90625 176.789062 252.867188 177.316406 C 252.832031 177.847656 252.761719 178.378906 252.660156 178.902344 C 252.5625 179.421875 252.761719 179.917969 253.1875 180.222656 L 256.449219 182.546875 C 256.835938 182.820312 257 183.304688 256.761719 183.714844 C 255.957031 185.105469 255.152344 186.496094 254.347656 187.886719 C 254.113281 188.296875 253.605469 188.394531 253.175781 188.199219 L 249.53125 186.546875 C 249.050781 186.328125 248.519531 186.402344 248.121094 186.746094 C 247.710938 187.097656 247.285156 187.425781 246.847656 187.71875 C 246.40625 188.015625 246.195312 188.511719 246.28125 189.03125 L 246.941406 192.972656 C 247.019531 193.4375 246.789062 193.898438 246.332031 194.023438 C 244.777344 194.433594 243.222656 194.851562 241.667969 195.265625 C 241.214844 195.390625 240.78125 195.105469 240.617188 194.660156 L 239.210938 190.921875 C 239.027344 190.425781 238.597656 190.105469 238.070312 190.066406 C 237.535156 190.03125 237.003906 189.960938 236.476562 189.859375 C 235.957031 189.761719 235.460938 189.960938 235.152344 190.390625 L 232.824219 193.640625 C 232.550781 194.023438 232.0625 194.191406 231.652344 193.953125 C 230.261719 193.152344 228.863281 192.347656 227.472656 191.542969 C 227.0625 191.308594 226.960938 190.804688 227.15625 190.375 L 228.816406 186.738281 C 229.03125 186.261719 228.957031 185.730469 228.613281 185.332031 C 228.261719 184.925781 227.933594 184.503906 227.636719 184.0625 C 227.339844 183.625 226.847656 183.410156 226.328125 183.496094 L 222.371094 184.15625 C 221.90625 184.234375 221.445312 184.007812 221.320312 183.550781 C 220.902344 182 220.488281 180.449219 220.070312 178.898438 C 219.949219 178.441406 220.234375 178.015625 220.679688 177.847656 L 224.421875 176.449219 C 224.917969 176.265625 225.238281 175.835938 225.277344 175.308594 C 225.316406 174.777344 225.386719 174.246094 225.488281 173.714844 C 225.585938 173.199219 225.386719 172.699219 224.957031 172.394531 L 221.703125 170.078125 C 221.316406 169.800781 221.152344 169.316406 221.386719 168.90625 C 222.195312 167.515625 223 166.125 223.800781 164.738281 C 224.042969 164.324219 224.546875 164.226562 224.976562 164.421875 L 228.617188 166.074219 C 229.097656 166.292969 229.628906 166.214844 230.027344 165.871094 C 230.433594 165.519531 230.863281 165.191406 231.304688 164.894531 C 231.746094 164.597656 231.953125 164.105469 231.867188 163.585938 L 231.210938 159.648438 C 231.132812 159.183594 231.359375 158.722656 231.816406 158.597656 C 233.371094 158.183594 234.929688 157.769531 236.484375 157.355469 C 236.941406 157.230469 237.367188 157.515625 237.535156 157.957031 L 238.9375 161.695312 C 239.125 162.1875 239.554688 162.511719 240.078125 162.546875 C 240.609375 162.585938 241.148438 162.65625 241.675781 162.757812 C 242.195312 162.855469 242.691406 162.65625 243 162.230469 L 245.324219 158.980469 C 245.601562 158.597656 246.085938 158.429688 246.496094 158.667969 C 247.890625 159.46875 249.285156 160.273438 250.679688 161.078125 C 251.089844 161.3125 251.191406 161.816406 250.996094 162.246094 L 249.335938 165.878906 C 249.121094 166.359375 249.195312 166.886719 249.542969 167.285156 Z M 242.6875 170.070312 C 240.960938 169.074219 238.988281 168.871094 237.203125 169.347656 C 235.421875 169.824219 233.816406 170.980469 232.820312 172.707031 C 230.816406 176.164062 232 180.558594 235.460938 182.550781 C 237.195312 183.550781 239.167969 183.753906 240.949219 183.28125 C 242.726562 182.804688 244.332031 181.644531 245.332031 179.914062 C 247.332031 176.457031 246.152344 172.066406 242.6875 170.070312 Z M 146.648438 167.285156 C 147.003906 167.695312 147.332031 168.121094 147.628906 168.558594 C 147.925781 168.996094 148.417969 169.210938 148.941406 169.121094 L 152.886719 168.464844 C 153.355469 168.386719 153.816406 168.613281 153.941406 169.070312 C 154.355469 170.621094 154.773438 172.171875 155.1875 173.722656 C 155.3125 174.179688 155.027344 174.609375 154.582031 174.773438 L 150.832031 176.175781 C 150.335938 176.359375 150.011719 176.789062 149.976562 177.316406 C 149.9375 177.847656 149.867188 178.378906 149.765625 178.902344 C 149.667969 179.421875 149.867188 179.917969 150.300781 180.222656 L 153.554688 182.546875 C 153.941406 182.820312 154.109375 183.304688 153.871094 183.714844 C 153.066406 185.105469 152.261719 186.496094 151.457031 187.886719 C 151.21875 188.296875 150.714844 188.394531 150.28125 188.199219 L 146.640625 186.546875 C 146.160156 186.328125 145.628906 186.402344 145.230469 186.746094 C 144.824219 187.097656 144.394531 187.425781 143.953125 187.71875 C 143.515625 188.015625 143.304688 188.511719 143.390625 189.03125 L 144.050781 192.972656 C 144.128906 193.4375 143.898438 193.898438 143.445312 194.023438 C 141.890625 194.433594 140.332031 194.851562 138.777344 195.265625 C 138.320312 195.390625 137.890625 195.105469 137.726562 194.660156 L 136.320312 190.921875 C 136.132812 190.425781 135.703125 190.105469 135.179688 190.066406 C 134.644531 190.03125 134.113281 189.960938 133.582031 189.859375 C 133.066406 189.761719 132.566406 189.960938 132.261719 190.390625 L 129.933594 193.640625 C 129.660156 194.023438 129.171875 194.191406 128.761719 193.953125 C 127.367188 193.152344 125.972656 192.347656 124.578125 191.542969 C 124.167969 191.308594 124.066406 190.804688 124.265625 190.375 L 125.921875 186.738281 C 126.140625 186.261719 126.066406 185.730469 125.722656 185.332031 C 125.371094 184.925781 125.042969 184.503906 124.746094 184.0625 C 124.449219 183.625 123.957031 183.410156 123.433594 183.496094 L 119.480469 184.15625 C 119.011719 184.234375 118.550781 184.007812 118.429688 183.550781 C 118.011719 182 117.597656 180.449219 117.179688 178.898438 C 117.054688 178.441406 117.34375 178.015625 117.785156 177.847656 L 121.53125 176.449219 C 122.027344 176.265625 122.347656 175.835938 122.386719 175.308594 C 122.425781 174.777344 122.496094 174.246094 122.59375 173.714844 C 122.695312 173.199219 122.496094 172.699219 122.066406 172.394531 L 118.8125 170.078125 C 118.425781 169.800781 118.257812 169.316406 118.5 168.90625 C 119.300781 167.515625 120.105469 166.125 120.914062 164.738281 C 121.148438 164.324219 121.65625 164.226562 122.085938 164.421875 L 125.726562 166.074219 C 126.207031 166.292969 126.738281 166.214844 127.136719 165.871094 C 127.546875 165.519531 127.972656 165.191406 128.414062 164.894531 C 128.851562 164.597656 129.066406 164.105469 128.976562 163.585938 L 128.316406 159.648438 C 128.242188 159.183594 128.46875 158.722656 128.925781 158.597656 C 130.480469 158.183594 132.035156 157.769531 133.589844 157.355469 C 134.046875 157.230469 134.476562 157.515625 134.640625 157.957031 L 136.046875 161.695312 C 136.230469 162.1875 136.664062 162.511719 137.1875 162.546875 C 137.722656 162.585938 138.253906 162.65625 138.785156 162.757812 C 139.304688 162.855469 139.800781 162.65625 140.105469 162.230469 L 142.433594 158.980469 C 142.707031 158.597656 143.195312 158.429688 143.605469 158.667969 C 145 159.46875 146.394531 160.273438 147.789062 161.078125 C 148.199219 161.3125 148.300781 161.816406 148.101562 162.246094 L 146.449219 165.878906 C 146.226562 166.359375 146.304688 166.886719 146.648438 167.285156 Z M 139.796875 170.070312 C 138.066406 169.074219 136.097656 168.871094 134.3125 169.347656 C 132.53125 169.824219 130.925781 170.980469 129.925781 172.707031 C 127.925781 176.164062 129.105469 180.558594 132.574219 182.550781 C 134.304688 183.550781 136.277344 183.753906 138.054688 183.28125 C 139.835938 182.804688 141.441406 181.644531 142.441406 179.914062 C 144.441406 176.457031 143.261719 172.066406 139.796875 170.070312 Z M 198.699219 112.804688 C 200.300781 113.332031 201.851562 113.976562 203.339844 114.722656 C 204.203125 115.152344 204.660156 116.058594 204.496094 117.003906 C 203.929688 120.265625 204.910156 123.738281 207.429688 126.253906 C 209.957031 128.773438 213.4375 129.746094 216.703125 129.183594 C 217.652344 129.019531 218.5625 129.476562 218.992188 130.335938 C 219.738281 131.820312 220.382812 133.367188 220.917969 134.964844 C 221.21875 135.875 220.902344 136.839844 220.113281 137.394531 C 217.40625 139.300781 215.636719 142.449219 215.636719 146.003906 C 215.636719 149.566406 217.40625 152.714844 220.113281 154.617188 C 220.902344 155.171875 221.222656 156.136719 220.917969 157.050781 C 220.382812 158.644531 219.738281 160.191406 218.992188 161.675781 C 218.5625 162.535156 217.652344 162.992188 216.703125 162.828125 C 213.4375 162.269531 209.957031 163.242188 207.429688 165.757812 C 204.910156 168.273438 203.929688 171.746094 204.496094 175.007812 C 204.660156 175.953125 204.203125 176.859375 203.339844 177.289062 C 201.851562 178.035156 200.300781 178.679688 198.699219 179.210938 C 197.785156 179.511719 196.820312 179.195312 196.261719 178.410156 C 194.351562 175.707031 191.199219 173.941406 187.628906 173.941406 C 184.0625 173.941406 180.90625 175.707031 178.996094 178.410156 C 178.441406 179.195312 177.472656 179.511719 176.558594 179.210938 C 174.957031 178.679688 173.410156 178.035156 171.917969 177.289062 C 171.058594 176.859375 170.601562 175.953125 170.765625 175.007812 C 171.328125 171.746094 170.351562 168.273438 167.828125 165.757812 C 165.304688 163.242188 161.824219 162.269531 158.558594 162.828125 C 157.605469 162.992188 156.699219 162.535156 156.265625 161.675781 C 155.519531 160.191406 154.875 158.644531 154.34375 157.050781 C 154.039062 156.136719 154.355469 155.171875 155.144531 154.617188 C 157.855469 152.714844 159.625 149.566406 159.625 146.003906 C 159.625 142.449219 157.855469 139.300781 155.144531 137.394531 C 154.355469 136.839844 154.039062 135.875 154.34375 134.964844 C 154.875 133.367188 155.519531 131.820312 156.265625 130.335938 C 156.699219 129.476562 157.609375 129.019531 158.558594 129.183594 C 161.824219 129.746094 165.304688 128.773438 167.828125 126.253906 C 170.351562 123.738281 171.328125 120.265625 170.765625 117.003906 C 170.601562 116.058594 171.058594 115.152344 171.917969 114.722656 C 173.410156 113.976562 174.957031 113.332031 176.558594 112.804688 C 177.472656 112.5 178.441406 112.816406 178.996094 113.601562 C 180.90625 116.304688 184.0625 118.074219 187.628906 118.074219 C 191.199219 118.074219 194.351562 116.304688 196.261719 113.601562 C 196.820312 112.816406 197.785156 112.5 198.699219 112.804688 Z M 187.628906 129.992188 C 196.496094 129.992188 203.683594 137.164062 203.683594 146.003906 C 203.683594 154.851562 196.496094 162.019531 187.628906 162.019531 C 178.761719 162.019531 171.578125 154.851562 171.578125 146.003906 C 171.578125 137.164062 178.761719 129.992188 187.628906 129.992188 Z M 241.480469 238.914062 C 239.40625 240.300781 236.507812 240.296875 234.4375 238.914062 C 234.375 238.875 234.292969 238.871094 234.230469 238.914062 C 234.164062 238.953125 234.128906 239.027344 234.136719 239.101562 C 234.527344 242.121094 234.738281 245.558594 234.738281 246.90625 L 234.738281 262.164062 C 236.886719 262.15625 239.03125 262.152344 241.183594 262.144531 L 241.183594 246.90625 C 241.183594 245.558594 241.390625 242.121094 241.78125 239.101562 C 241.792969 239.023438 241.757812 238.953125 241.691406 238.910156 C 241.625 238.871094 241.546875 238.871094 241.480469 238.914062 Z M 231.492188 231.644531 C 231.320312 231.074219 231.148438 230.5 230.980469 229.9375 C 233.082031 231.597656 235.207031 233.199219 238.0625 233.175781 C 240.1875 233.160156 243.984375 230.90625 245.304688 229.117188 C 245.019531 229.953125 244.695312 230.769531 244.367188 231.585938 C 244.335938 231.660156 244.355469 231.746094 244.414062 231.800781 C 244.480469 231.859375 244.566406 231.867188 244.636719 231.828125 C 245.359375 231.433594 246.074219 231.015625 246.746094 230.429688 C 247.566406 229.714844 248.324219 228.753906 249.085938 227.796875 C 248.820312 228.542969 248.554688 229.292969 248.289062 230.042969 C 249.328125 229.179688 250.371094 228.3125 251.179688 227.460938 C 251.984375 226.605469 252.5625 225.765625 253.140625 224.925781 C 252.621094 221.25 252.101562 217.574219 251.496094 214.644531 C 250.890625 211.71875 250.195312 209.539062 249.25 207.679688 C 248.300781 205.816406 247.097656 204.273438 245.539062 202.992188 C 243.980469 201.714844 242.058594 200.699219 240.132812 200.3125 C 238.203125 199.925781 236.261719 200.167969 234.753906 200.703125 C 233.246094 201.242188 232.171875 202.070312 231.097656 202.898438 C 230.335938 203.175781 229.570312 203.453125 228.71875 204.089844 C 227.863281 204.722656 226.914062 205.714844 226.003906 207.949219 C 225.097656 210.183594 224.234375 213.667969 223.691406 216.535156 C 223.148438 219.40625 222.925781 221.664062 222.832031 222.867188 C 222.730469 224.070312 222.753906 224.222656 223.054688 224.722656 C 223.355469 225.226562 223.933594 226.078125 224.667969 226.886719 C 225.398438 227.691406 226.292969 228.449219 227.179688 229.210938 C 227.074219 228.671875 226.972656 228.128906 226.867188 227.589844 C 228.539062 230.222656 228.777344 230.445312 231.207031 231.871094 C 231.277344 231.910156 231.363281 231.90625 231.425781 231.851562 C 231.488281 231.804688 231.515625 231.722656 231.492188 231.644531 Z M 229.398438 214 C 229.707031 214.078125 230.019531 214.160156 230.328125 214.238281 C 230.441406 214.265625 230.546875 214.246094 230.640625 214.183594 C 230.734375 214.121094 230.792969 214.027344 230.808594 213.917969 C 230.933594 213.046875 231.089844 212.179688 231.453125 211.355469 C 231.882812 210.390625 232.597656 209.484375 233.316406 208.574219 C 232.886719 209.769531 232.460938 210.96875 232.265625 211.871094 C 232.105469 212.597656 232.097656 213.132812 232.117188 213.632812 C 232.125 213.839844 232.292969 214.003906 232.5 214.003906 C 233.164062 214.015625 233.824219 214.019531 234.484375 214.03125 C 234.6875 214.03125 234.855469 213.882812 234.875 213.679688 C 234.96875 212.761719 235.066406 211.855469 235.214844 211.054688 C 235.382812 210.152344 235.613281 209.378906 235.847656 208.605469 C 235.695312 209.839844 235.542969 211.070312 235.527344 212.027344 C 235.515625 212.800781 235.585938 213.394531 235.675781 213.949219 C 235.691406 214.058594 235.75 214.144531 235.835938 214.207031 C 235.925781 214.269531 236.023438 214.292969 236.132812 214.269531 C 236.132812 214.269531 236.140625 214.269531 236.144531 214.269531 C 236.332031 214.234375 236.464844 214.066406 236.457031 213.875 C 236.425781 212.917969 236.40625 211.960938 236.460938 211.078125 C 236.527344 210.09375 236.6875 209.195312 236.851562 208.292969 C 236.839844 209.632812 236.828125 210.96875 236.878906 211.902344 C 236.929688 212.789062 237.035156 213.3125 237.144531 213.816406 C 237.15625 213.871094 237.175781 213.917969 237.210938 213.960938 C 237.246094 214.007812 237.28125 214.054688 237.3125 214.101562 C 237.394531 214.214844 237.519531 214.269531 237.65625 214.257812 C 238.613281 214.1875 239.570312 214.117188 240.527344 214.046875 C 240.664062 214.035156 240.777344 213.960938 240.84375 213.839844 C 240.90625 213.71875 240.902344 213.585938 240.835938 213.464844 C 240.570312 213.003906 240.324219 212.5625 240.167969 212.171875 C 239.945312 211.636719 239.886719 211.210938 239.832031 210.785156 C 240.226562 211.464844 240.617188 212.144531 241.195312 212.660156 C 241.4375 212.882812 241.714844 213.070312 242.011719 213.246094 C 242.160156 213.332031 242.339844 213.3125 242.46875 213.199219 C 242.59375 213.085938 242.632812 212.90625 242.5625 212.75 C 242.535156 212.695312 242.511719 212.636719 242.488281 212.574219 C 242.28125 212.039062 242.164062 211.359375 242.050781 210.679688 C 242.558594 211.558594 243.066406 212.433594 243.726562 213.042969 C 244.382812 213.65625 245.191406 214 246 214.347656 C 246.167969 216.40625 246.824219 224.957031 245.613281 226.386719 C 243.609375 228.769531 241.316406 230.957031 237.953125 231.15625 C 233.679688 230.902344 231.421875 227.929688 230.453125 226.582031 C 228.722656 224.546875 229.027344 216.695312 229.398438 214 Z M 253.773438 262.109375 L 257.558594 262.109375 C 259.019531 262.109375 260.277344 261.554688 261.257812 260.476562 C 262.238281 259.394531 262.667969 258.089844 262.527344 256.640625 C 261.960938 250.914062 261.429688 243.03125 261.011719 241.585938 C 260.40625 239.503906 260.035156 238.746094 259.398438 238.273438 C 258.761719 237.800781 257.859375 237.605469 255.835938 237.109375 L 253.882812 236.625 C 252.703125 236.261719 251.671875 235.988281 250.71875 235.699219 C 248.714844 235.082031 247.050781 234.382812 245.027344 232.597656 C 244.949219 232.527344 244.835938 232.515625 244.742188 232.5625 C 244.644531 232.605469 244.589844 232.699219 244.597656 232.808594 C 244.871094 234.628906 244.527344 236.117188 243.796875 237.261719 C 243.152344 240.328125 242.757812 245.578125 242.757812 247.070312 L 242.757812 262.140625 C 246.421875 262.132812 250.089844 262.121094 253.773438 262.109375 Z M 222.148438 262.109375 L 218.363281 262.109375 C 216.898438 262.109375 215.640625 261.554688 214.660156 260.476562 C 213.679688 259.394531 213.25 258.089844 213.390625 256.640625 C 213.957031 250.914062 214.488281 243.03125 214.90625 241.585938 C 215.511719 239.503906 215.882812 238.746094 216.519531 238.273438 C 217.15625 237.800781 218.0625 237.605469 220.082031 237.109375 L 222.035156 236.625 C 223.21875 236.261719 224.246094 235.988281 225.199219 235.699219 C 227.203125 235.082031 228.867188 234.382812 230.890625 232.597656 C 230.972656 232.527344 231.082031 232.515625 231.175781 232.5625 C 231.273438 232.605469 231.328125 232.699219 231.324219 232.808594 C 231.050781 234.628906 231.394531 236.117188 232.125 237.261719 C 232.765625 240.328125 233.160156 245.578125 233.160156 247.070312 L 233.160156 262.140625 C 229.5 262.132812 225.828125 262.121094 222.148438 262.109375 Z M 129.214844 222.199219 L 129.1875 222.1875 C 128.796875 222.070312 128.46875 221.9375 128.222656 221.734375 C 127.976562 221.535156 127.8125 221.269531 127.628906 220.75 C 127.441406 220.230469 127.230469 219.445312 127.078125 218.75 C 126.929688 218.046875 126.839844 217.429688 126.796875 216.890625 C 126.757812 216.355469 126.765625 215.898438 126.894531 215.539062 C 127.019531 215.183594 127.359375 214.890625 127.597656 214.820312 C 127.835938 214.746094 127.960938 214.792969 128.066406 214.765625 C 128.171875 214.742188 128.011719 214.679688 128.011719 214.625 L 126.585938 210.644531 C 124.65625 206.183594 128.429688 203.664062 130.90625 204.457031 C 130.210938 203.183594 132.3125 201.34375 133.324219 200.894531 C 137.574219 199.019531 141.585938 200.117188 145.316406 202.511719 C 147.738281 203.945312 148.515625 201.753906 148.949219 202.074219 C 150.515625 203.230469 150.957031 207.804688 147.40625 210.761719 C 147.757812 212.796875 147.4375 213.828125 146.820312 214.746094 C 147 214.757812 147.167969 214.796875 147.324219 214.855469 C 147.664062 214.984375 147.972656 215.210938 148.121094 215.636719 C 148.265625 216.058594 148.246094 216.679688 148.195312 217.300781 C 148.136719 217.921875 148.046875 218.539062 147.898438 219.160156 C 147.746094 219.78125 147.539062 220.410156 147.351562 220.851562 C 147.167969 221.296875 147.003906 221.5625 146.757812 221.761719 C 146.511719 221.960938 146.183594 222.097656 145.792969 222.214844 C 145.71875 222.238281 145.640625 222.257812 145.566406 222.28125 L 145.441406 224.171875 C 145.371094 225.28125 144.96875 226.21875 144.222656 227.035156 L 144.222656 230.3125 C 144.222656 230.96875 143.945312 231.527344 143.425781 231.925781 L 138.546875 236.84375 C 138.242188 237.074219 137.933594 237.195312 137.613281 237.191406 C 137.308594 237.191406 136.996094 237.074219 136.671875 236.839844 L 131.804688 231.929688 C 131.285156 231.53125 131.007812 230.96875 131.007812 230.3125 L 131.007812 227.488281 L 130.648438 227.113281 C 129.847656 226.277344 129.421875 225.3125 129.347656 224.160156 L 129.21875 222.199219 Z M 129.675781 230.304688 C 129.683594 230.183594 129.621094 230.078125 129.511719 230.027344 C 129.363281 229.957031 129.023438 229.984375 128.640625 230.21875 L 122.589844 233.996094 C 115.203125 236.039062 113.15625 239.128906 112.707031 245.417969 L 112.707031 258.402344 C 112.707031 260.328125 114.054688 260.730469 114.949219 260.847656 C 121.949219 261.753906 127.34375 262.050781 134.34375 262.164062 L 135.699219 238.8125 C 135.722656 238.402344 134.15625 237.8125 132.191406 239.6875 C 131.472656 240.375 130.125 240.328125 129.910156 239.433594 C 129.265625 236.746094 129.46875 233.714844 129.675781 230.304688 Z M 145.578125 230.304688 C 145.570312 230.183594 145.632812 230.078125 145.742188 230.027344 C 145.886719 229.957031 146.230469 229.984375 146.609375 230.21875 L 152.664062 233.996094 C 160.054688 236.039062 162.09375 239.128906 162.550781 245.417969 L 162.550781 257.457031 C 162.550781 260.210938 161.199219 260.730469 160.304688 260.847656 C 153.304688 261.753906 147.910156 262.050781 140.90625 262.164062 L 139.550781 238.8125 C 139.527344 238.402344 141.09375 237.8125 143.0625 239.6875 C 143.78125 240.375 145.128906 240.328125 145.34375 239.433594 C 145.988281 236.746094 145.785156 233.714844 145.578125 230.304688 Z M 145.578125 230.304688 " fill-opacity="1" fill-rule="evenodd"></path></g></svg>